# xmcd CD database file
#
# Track frame offsets:
#	150
#	11221
#	26770
#	43026
#	63516
#	77853
#	92917
#	110584
#	122884
#	135854
#	150454
#	163623
#	183097
#	203385
#	235996
#	261298
#	277937
#
# Disc length: 3874 seconds
#
# Revision: 0
# Processed by: cddbd v1.5.2PL0 Copyright (c) Steve Scherf et al.
# Submitted via: CDex 1.51
#
DISCID=df0f2011
DTITLE=Chet Baker - I'll remember you
DYEAR=2013
DGENRE=Jazz
TTITLE0=Like someone in love
TTITLE1=Moonlight becomes you
TTITLE2=It's always you
TTITLE3=Lullaby of the leaves
TTITLE4=On green dolphin street
TTITLE5=I fall in love too easily
TTITLE6=Stelle by starlight
TTITLE7=Happy little sunbeam
TTITLE8=The thrill is gone
TTITLE9=My old flame
TTITLE10=There's a lull in my life
TTITLE11=Love nest
TTITLE12=I've never been in love before
TTITLE13=Minor yours
TTITLE14=Lucius lu
TTITLE15=Grey december
TTITLE16=How long has this been going on
EXTD=YEAR: 2013
EXTT0=
EXTT1=
EXTT2=
EXTT3=
EXTT4=
EXTT5=
EXTT6=
EXTT7=
EXTT8=
EXTT9=
EXTT10=
EXTT11=
EXTT12=
EXTT13=
EXTT14=
EXTT15=
EXTT16=
PLAYORDER=
